<!-- Save this as public/clipli-icon.svg -->
<svg xmlns="http://www.w3.org/2000/svg" viewBox="0 0 24 24" fill="#0D92F4">
  <path d="M10.59 13.41a1.5 1.5 0 0 1 0-2.12l3.18-3.18a1.5 1.5 0 0 1 2.12 2.12l-3.18 3.18a1.5 1.5 0 0 1-2.12 0zm-4.24 4.24a4 4 0 0 1 0-5.66l1.41-1.41a1 1 0 1 1 1.42 1.41l-1.41 1.42a2 2 0 0 0 2.83 2.83l1.41-1.41a1 1 0 1 1 1.41 1.42l-1.41 1.41a4 4 0 0 1-5.66 0zm10.6-10.6a4 4 0 0 1 0 5.66l-1.41 1.41a1 1 0 0 1-1.42-1.41l1.41-1.42a2 2 0 1 0-2.83-2.83l-1.41 1.41a1 1 0 1 1-1.41-1.42l1.41-1.41a4 4 0 0 1 5.66 0z"></path>
</svg>
